<svg width="112" height="37" viewBox="0 0 112 37" fill="none" xmlns="http://www.w3.org/2000/svg">
<path fill-rule="evenodd" clip-rule="evenodd" d="M31.8333 19C31.8333 26.0877 26.0877 31.8333 19 31.8333C11.9123 31.8333 6.16666 26.0877 6.16666 19C6.16666 11.9123 11.9123 6.16666 19 6.16666C26.0877 6.16666 31.8333 11.9123 31.8333 19ZM34 19C34 27.2843 27.2843 34 19 34C10.7157 34 4 27.2843 4 19C4 10.7157 10.7157 4 19 4C27.2843 4 34 10.7157 34 19ZM27.2759 12.2759C27.2759 13.1329 26.5812 13.8276 25.7242 13.8276C24.8672 13.8276 24.1725 13.1329 24.1725 12.2759C24.1725 11.4189 24.8672 10.7242 25.7242 10.7242C26.5812 10.7242 27.2759 11.4189 27.2759 12.2759ZM14.4879 20.209C15.1556 22.7009 17.717 24.1797 20.2089 23.512C22.7008 22.8443 24.1796 20.2829 23.5119 17.791C22.8442 15.2991 20.2828 13.8203 17.7909 14.488C15.299 15.1557 13.8201 17.7171 14.4879 20.209ZM12.395 20.7698C13.3724 24.4175 17.1219 26.5823 20.7696 25.6049C24.4174 24.6274 26.5821 20.878 25.6047 17.2302C24.6273 13.5825 20.8779 11.4177 17.2301 12.3952C13.5824 13.3726 11.4176 17.122 12.395 20.7698Z" fill="url(#paint0_linear_528_8)"/>
<path d="M43.528 29C43.024 29 42.5853 28.832 42.212 28.496C41.8387 28.16 41.652 27.7587 41.652 27.292V11.108C41.652 10.6413 41.8293 10.24 42.184 9.904C42.5573 9.568 43.0053 9.4 43.528 9.4H51.06C52.852 9.4 54.28 9.904 55.344 10.912C56.4267 11.9013 56.968 13.236 56.968 14.916C56.968 15.7187 56.7533 16.484 56.324 17.212C55.8947 17.9213 55.3253 18.472 54.616 18.864V18.948C55.5867 19.284 56.352 19.8347 56.912 20.6C57.4907 21.3653 57.78 22.2427 57.78 23.232C57.78 24.352 57.5187 25.3507 56.996 26.228C56.4733 27.1053 55.7453 27.7867 54.812 28.272C53.8787 28.7573 52.8147 29 51.62 29H43.528ZM51.004 17.632C51.62 17.632 52.1427 17.38 52.572 16.876C53.02 16.372 53.244 15.7653 53.244 15.056C53.244 14.2907 53.0387 13.684 52.628 13.236C52.236 12.788 51.6947 12.564 51.004 12.564H45.292V17.632H51.004ZM51.564 25.836C52.3293 25.836 52.936 25.612 53.384 25.164C53.832 24.6973 54.056 24.0627 54.056 23.26C54.056 22.476 53.832 21.8693 53.384 21.44C52.9547 20.992 52.348 20.768 51.564 20.768H45.292V25.836H51.564ZM65.6329 29.252C64.4196 29.252 63.3182 29.0373 62.3289 28.608C61.3582 28.16 60.5929 27.544 60.0329 26.76C59.4729 25.976 59.1929 25.0893 59.1929 24.1V20.152C59.1929 19.144 59.4636 18.2293 60.0049 17.408C60.5649 16.5867 61.3302 15.9427 62.3009 15.476C63.2716 14.9907 64.3822 14.748 65.6329 14.748C66.8836 14.748 67.9942 14.9907 68.9649 15.476C69.9542 15.9427 70.7196 16.5867 71.2609 17.408C71.8209 18.2293 72.1009 19.144 72.1009 20.152V24.1C72.1009 25.0893 71.8116 25.976 71.2329 26.76C70.6729 27.544 69.8982 28.16 68.9089 28.608C67.9382 29.0373 66.8462 29.252 65.6329 29.252ZM65.6329 26.256C66.5662 26.256 67.2942 26.0413 67.8169 25.612C68.3582 25.1827 68.6289 24.604 68.6289 23.876V20.32C68.6289 19.5547 68.3582 18.9387 67.8169 18.472C67.2942 17.9867 66.5662 17.744 65.6329 17.744C64.7182 17.744 63.9902 17.9867 63.4489 18.472C62.9076 18.9387 62.6369 19.5547 62.6369 20.32V23.876C62.6369 24.604 62.9076 25.1827 63.4489 25.612C63.9902 26.0413 64.7182 26.256 65.6329 26.256ZM80.0157 29.252C78.8024 29.252 77.7011 29.0373 76.7117 28.608C75.7411 28.16 74.9757 27.544 74.4157 26.76C73.8557 25.976 73.5757 25.0893 73.5757 24.1V20.152C73.5757 19.144 73.8464 18.2293 74.3877 17.408C74.9477 16.5867 75.7131 15.9427 76.6837 15.476C77.6544 14.9907 78.7651 14.748 80.0157 14.748C81.2664 14.748 82.3771 14.9907 83.3477 15.476C84.3371 15.9427 85.1024 16.5867 85.6437 17.408C86.2037 18.2293 86.4837 19.144 86.4837 20.152V24.1C86.4837 25.0893 86.1944 25.976 85.6157 26.76C85.0557 27.544 84.2811 28.16 83.2917 28.608C82.3211 29.0373 81.2291 29.252 80.0157 29.252ZM80.0157 26.256C80.9491 26.256 81.6771 26.0413 82.1997 25.612C82.7411 25.1827 83.0117 24.604 83.0117 23.876V20.32C83.0117 19.5547 82.7411 18.9387 82.1997 18.472C81.6771 17.9867 80.9491 17.744 80.0157 17.744C79.1011 17.744 78.3731 17.9867 77.8317 18.472C77.2904 18.9387 77.0197 19.5547 77.0197 20.32V23.876C77.0197 24.604 77.2904 25.1827 77.8317 25.612C78.3731 26.0413 79.1011 26.256 80.0157 26.256ZM88.6833 17.436C88.6833 16.5773 88.9539 15.9147 89.4953 15.448C90.0366 14.9813 90.8579 14.748 91.9593 14.748V16.428C91.6233 16.8387 91.3993 17.1373 91.2873 17.324L91.4833 17.436C92.0619 16.5587 92.6779 15.896 93.3313 15.448C93.9846 14.9813 94.7593 14.748 95.6553 14.748C97.2793 14.748 98.3993 15.5413 99.0153 17.128C99.4819 16.3813 100.079 15.8027 100.807 15.392C101.535 14.9627 102.357 14.748 103.271 14.748C104.541 14.748 105.549 15.2147 106.295 16.148C107.061 17.0627 107.443 18.2387 107.443 19.676V27.124C107.443 27.8707 107.154 28.412 106.575 28.748C106.015 29.084 105.157 29.252 103.999 29.252V19.956C103.999 19.2653 103.841 18.7147 103.523 18.304C103.225 17.8933 102.758 17.688 102.123 17.688C101.451 17.688 100.882 17.9213 100.415 18.388C99.9673 18.836 99.7433 19.5453 99.7433 20.516V27.124C99.7433 27.8707 99.4633 28.412 98.9033 28.748C98.3619 29.084 97.5126 29.252 96.3553 29.252V19.956C96.3553 19.2467 96.2059 18.696 95.9073 18.304C95.6086 17.8933 95.1419 17.688 94.5073 17.688C93.7233 17.688 93.1259 17.9587 92.7153 18.5C92.3233 19.0227 92.1273 19.7413 92.1273 20.656V27.124C92.1273 27.8707 91.8379 28.412 91.2593 28.748C90.6993 29.084 89.8406 29.252 88.6833 29.252V17.436Z" fill="white"/>
<defs>
<linearGradient id="paint0_linear_528_8" x1="19" y1="4" x2="19" y2="34" gradientUnits="userSpaceOnUse">
<stop stop-color="#877EFF"/>
<stop offset="0.461458" stop-color="#685DFF"/>
<stop offset="1" stop-color="#3121FF"/>
</linearGradient>
</defs>
</svg>
